<svg width="32" height="32" viewBox="0 0 32 32" fill="none" xmlns="http://www.w3.org/2000/svg">
    <path d="M21.1958 9.1817C21.0822 9.06814 20.946 9 20.787 9H16.2446H11.7249C11.5546 9 11.3956 9.07949 11.2934 9.21576L8.14779 13.1222C7.95474 13.3607 7.95474 13.7354 8.15915 13.9626L15.8471 22.8429C16.0743 23.1041 16.449 23.1041 16.6761 22.8543L24.8297 13.9966C25.0568 13.7468 25.0568 13.3493 24.8297 13.1109L21.1958 9.1817Z" fill="#F8E485" stroke="black" stroke-width="0.5" stroke-miterlimit="10"/>
    <path d="M14.5867 9L12.8719 13.3153C12.8151 13.4629 12.8038 13.6332 12.8606 13.7922L16.256 23.036" fill="#F8E485"/>
    <path d="M14.5867 9L12.8719 13.3153C12.8151 13.4629 12.8038 13.6332 12.8606 13.7922L16.256 23.036" stroke="black" stroke-width="0.5" stroke-miterlimit="10"/>
    <path d="M17.914 9L19.6287 13.3153C19.6855 13.4629 19.6968 13.6332 19.6401 13.7922L16.2446 23.036" fill="#F8E485"/>
    <path d="M17.914 9L19.6287 13.3153C19.6855 13.4629 19.6968 13.6332 19.6401 13.7922L16.2446 23.036" stroke="black" stroke-width="0.5" stroke-miterlimit="10"/>
    <path d="M24.9885 13.5426H8" stroke="black" stroke-width="0.5" stroke-miterlimit="10"/>
</svg>
