<svg width="287" height="107" fill="none" xmlns="http://www.w3.org/2000/svg"><g opacity=".5" stroke="#6D758D" stroke-linecap="round"><path d="M8.158 52.806H31.47c3.948 0 7.144 3.343 7.144 7.473v32.054c0 4.13-3.196 7.473-7.144 7.473H8.158c-3.948 0-7.144-3.343-7.144-7.472V60.279c0-4.13 3.196-7.473 7.144-7.473Z" fill="#fff" stroke-miterlimit="10" stroke-linejoin="round"/><path d="M6.56 74.635h26.32M6.56 82.51h26.32M6.56 67.457h26.32M6.56 60.28h26.32" stroke-miterlimit="10" stroke-linejoin="round"/><circle cx="38.501" cy="82.51" r="12.999" fill="#fff"/><path d="m32.202 82.51 4.5 4.5 8.998-9"/></g><g opacity=".5"><path d="M267.429 100.868c9.074 0 16.429-7.426 16.429-16.586 0-9.16-7.355-16.585-16.429-16.585-9.073 0-16.429 7.425-16.429 16.585s7.356 16.586 16.429 16.586Z" fill="#fff" stroke="#6D758D" stroke-miterlimit="10" stroke-linejoin="round"/><path d="M260.5 83.38a1.5 1.5 0 1 0 0-3 1.5 1.5 0 0 0 0 3ZM273.478 83.38a1.5 1.5 0 1 0 0-3 1.5 1.5 0 0 0 0 3Z" fill="#6D758D"/><path d="M272 90.182c-1.25 1.09-2.917 1.818-4.792 1.818-2.083 0-3.958-.727-5.208-2" stroke="#6D758D" stroke-miterlimit="10" stroke-linecap="round"/><path d="M284.198 102.262a.5.5 0 0 0 .707-.707l-.707.707Zm-5.531-5.531 5.531 5.531.707-.707-5.531-5.531-.707.707Z" fill="#6D758D"/></g><g opacity=".3" stroke="#6D758D" stroke-linecap="round"><rect x="57.5" y=".5" width="40" height="40" rx="5.5" fill="#fff"/><path d="M93 41v0a6 6 0 0 1-6 6H57a6 6 0 0 1-6-6V12.935A5.935 5.935 0 0 1 56.935 7v0"/><path d="m61.474 27.697 5.284-9.158a3 3 0 0 1 4.865-.465l5.417 6.25a3 3 0 0 0 4.629-.113L90.456 13"/><circle cx="91" cy="12" r="2" fill="#fff"/></g><path fill-rule="evenodd" clip-rule="evenodd" d="M147 35.167c-17.02 0-30.833 13.813-30.833 30.833 0 17.02 13.813 30.833 30.833 30.833 17.02 0 30.833-13.813 30.833-30.833 0-17.02-13.813-30.833-30.833-30.833Zm3.083 46.25h-6.166V75.25h6.166v6.167Zm0-12.334h-6.166v-18.5h6.166v18.5Z" fill="#C44242"/><g opacity=".4" clip-path="url(#a)" fill="#fff" stroke="#6D758D" stroke-width=".76" stroke-miterlimit="10" stroke-linecap="round" stroke-linejoin="round"><path d="m232.377 24.44-22.876-.152c-3.952 0-7.144-3.192-7.144-6.992 0-3.876 3.268-6.992 7.22-6.916l22.876.152c3.952 0 7.145 3.192 7.145 6.992s-3.269 6.992-7.221 6.916Z"/><path d="M232.604 24.44c3.877 0 6.993-3.116 6.993-6.916 0-3.876-3.116-6.992-6.917-6.992-3.8 0-6.992 3.116-6.992 6.916-.076 3.876 3.04 6.992 6.916 6.992ZM209.5 32.116l22.876.152c3.952 0 7.144 3.192 7.144 6.992 0 3.877-3.268 6.992-7.22 6.916l-22.876-.151c-3.952 0-7.144-3.192-7.144-6.993 0-3.876 3.268-6.992 7.22-6.916Z"/><path d="M209.272 32.116c-3.876-.076-6.992 3.04-6.992 6.916 0 3.877 3.116 6.993 6.916 6.993 3.876 0 6.992-3.117 6.992-6.917.076-3.876-3.04-6.992-6.916-6.992Z"/></g><defs><clipPath id="a"><path fill="#fff" transform="translate(200 10)" d="M0 0h39.977v42.789H0z"/></clipPath></defs></svg>
