<?xml version="1.0" encoding="UTF-8"?>
<svg xmlns="http://www.w3.org/2000/svg" xmlns:xlink="http://www.w3.org/1999/xlink" width="30px" height="19px" viewBox="0 0 32 19" version="1.1">
    <g id="surface1">
        <path style="fill-rule:nonzero;fill:rgb(8.235294%,76.470588%,60.392157%);fill-opacity:1;stroke-width:0.5;stroke-linecap:butt;stroke-linejoin:miter;stroke:rgb(5.490196%,6.27451%,10.196078%);stroke-opacity:1;stroke-miterlimit:10;" d="M 17.244141 12.966694 C 20.636719 12.966694 23.405273 10.304276 23.405273 6.98273 C 23.405273 3.661184 20.666016 0.998766 17.244141 0.998766 C 13.825195 0.998766 11.083008 3.661184 11.083008 6.98273 C 11.083008 10.304276 13.825195 12.966694 17.244141 12.966694 Z M 17.244141 12.966694 " transform="matrix(1.333333,0,0,1.357143,0,0)"/>
        <path style="fill:none;stroke-width:0.5;stroke-linecap:round;stroke-linejoin:miter;stroke:rgb(100%,100%,100%);stroke-opacity:1;stroke-miterlimit:4;" d="M 14.443359 6.98273 L 16.68457 9.158717 L 20.507812 4.872944 " transform="matrix(1.333333,0,0,1.357143,0,0)"/>
        <path style="fill-rule:nonzero;fill:rgb(97.254902%,89.411765%,52.156863%);fill-opacity:1;stroke-width:0.5;stroke-linecap:butt;stroke-linejoin:miter;stroke:rgb(5.490196%,6.27451%,10.196078%);stroke-opacity:1;stroke-miterlimit:10;" d="M 7.163086 12.966694 C 10.564453 12.966694 13.324219 10.289885 13.324219 6.98273 C 13.324219 3.678454 10.564453 0.998766 7.163086 0.998766 C 3.758789 0.998766 0.999023 3.678454 0.999023 6.98273 C 0.999023 10.289885 3.758789 12.966694 7.163086 12.966694 Z M 7.163086 12.966694 " transform="matrix(1.333333,0,0,1.357143,0,0)"/>
        <path style="fill:none;stroke-width:0.5;stroke-linecap:butt;stroke-linejoin:miter;stroke:rgb(0%,0%,0%);stroke-opacity:1;stroke-miterlimit:4;" d="M 5.469727 9.049342 C 5.947266 9.383224 6.533203 9.578947 7.166016 9.578947 C 7.798828 9.578947 8.381836 9.383224 8.859375 9.049342 " transform="matrix(1.333333,0,0,1.357143,0,0)"/>
        <path style=" stroke:none;fill-rule:nonzero;fill:rgb(5.490196%,6.27451%,10.196078%);fill-opacity:1;" d="M 5.980469 8.710938 C 6.375 8.710938 6.691406 8.292969 6.691406 7.777344 C 6.691406 7.265625 6.375 6.847656 5.980469 6.847656 C 5.589844 6.847656 5.269531 7.265625 5.269531 7.777344 C 5.269531 8.292969 5.589844 8.710938 5.980469 8.710938 Z M 5.980469 8.710938 "/>
        <path style=" stroke:none;fill-rule:nonzero;fill:rgb(5.490196%,6.27451%,10.196078%);fill-opacity:1;" d="M 13.050781 8.710938 C 13.441406 8.710938 13.761719 8.292969 13.761719 7.777344 C 13.761719 7.265625 13.441406 6.847656 13.050781 6.847656 C 12.65625 6.847656 12.339844 7.265625 12.339844 7.777344 C 12.339844 8.292969 12.65625 8.710938 13.050781 8.710938 Z M 13.050781 8.710938 "/>
    </g>
</svg>
