<svg width="20" height="20" viewBox="0 0 20 20" fill="none" xmlns="http://www.w3.org/2000/svg">
<path d="M10.0002 3.33337V0.833374L6.66683 4.16671L10.0002 7.50004V5.00004C12.7585 5.00004 15.0002 7.24171 15.0002 10C15.0002 10.8417 14.7918 11.6417 14.4168 12.3334L15.6335 13.55C16.2835 12.525 16.6668 11.3084 16.6668 10C16.6668 6.31671 13.6835 3.33337 10.0002 3.33337ZM10.0002 15C7.24183 15 5.00016 12.7584 5.00016 10C5.00016 9.15837 5.2085 8.35837 5.5835 7.66671L4.36683 6.45004C3.71683 7.47504 3.3335 8.69171 3.3335 10C3.3335 13.6834 6.31683 16.6667 10.0002 16.6667V19.1667L13.3335 15.8334L10.0002 12.5V15Z" fill="#EF8E2F"/>
</svg>
