<svg width="14" height="14" viewBox="0 0 14 14" fill="none" xmlns="http://www.w3.org/2000/svg">
<path d="M6.99994 13.9993H0L3.50066 10.5002L6.99994 13.9993Z" fill="#F6B8D3"/>
<path d="M10.5009 10.5L7.00025 13.9991L3.50098 10.5L7.00025 6.99951L10.5009 10.5Z" fill="#B14E8E"/>
<path d="M13.9999 13.9993H7L10.5007 10.5002L13.9999 13.9993Z" fill="#F6B8D3"/>
<path d="M6.99994 6.99965L3.50066 10.5001L0 6.99965L3.50066 3.50055L6.99994 6.99965Z" fill="#3F3F8B"/>
<path d="M3.50066 10.5L0 13.9991V6.99951L3.50066 10.5Z" fill="#5793CE"/>
<path d="M3.50066 3.50048L0 6.99958V0L3.50066 3.50048Z" fill="#5793CE"/>
<path d="M13.9999 6.99965L10.5007 10.5001L7 6.99965L10.5007 3.50055L13.9999 6.99965Z" fill="#B74E13"/>
<path d="M13.9998 0.00012207V6.9997L10.5005 3.5006L13.9998 0.00012207Z" fill="#FCB61F"/>
<path d="M13.9998 6.99951V13.9991L10.5005 10.5L13.9998 6.99951Z" fill="#FCB61F"/>
</svg>
