<svg width="120" height="23" viewBox="0 0 120 23" fill="none" xmlns="http://www.w3.org/2000/svg">
<path d="M35.4512 12.3991H35.6183L40.5705 18.1884L45.4772 12.3991H45.6443V22.8651H44.1043V17.4859C44.1043 16.9068 44.1651 15.9934 44.1651 15.9934C44.1651 15.9934 43.6619 16.77 43.2346 17.2428L40.6294 20.3815H40.4471L37.8437 17.2409C37.4469 16.7681 36.9285 15.9915 36.9285 15.9915C36.9285 15.9915 36.9893 16.9068 36.9893 17.484V22.8632H35.4512V12.3991Z" fill="#5E7999"/>
<path d="M48.8535 17.6833C48.8535 14.5902 51.2309 12.3667 54.2007 12.3667C57.1573 12.3667 59.5328 14.5921 59.5328 17.6833C59.5328 20.7764 57.1554 22.9999 54.2007 22.9999C51.229 22.9999 48.8535 20.7764 48.8535 17.6833ZM57.8884 17.6833C57.8884 15.475 56.3636 13.8136 54.2007 13.8136C52.0379 13.8136 50.4979 15.475 50.4979 17.6833C50.4979 19.8916 52.036 21.553 54.2007 21.553C56.3636 21.5549 57.8884 19.8935 57.8884 17.6833Z" fill="#5E7999"/>
<path d="M62.8481 12.5054H66.2111C69.5322 12.5054 71.7406 14.5769 71.7406 17.6833C71.7406 20.7916 69.5474 22.8632 66.2111 22.8632H62.8481V12.5054ZM66.1047 21.4467C68.8011 21.4467 70.0658 19.8935 70.0658 17.6833C70.0658 15.4751 68.8011 13.92 66.1047 13.92H64.4622V21.4448H66.1047V21.4467Z" fill="#5E7999"/>
<path d="M78.7758 16.8156C78.5175 16.2061 78.2593 15.2757 78.2593 15.2757C78.2593 15.2757 78.0143 16.2061 77.7561 16.8156L75.0445 22.8632H73.4912L78.1985 12.3972H78.3808L83.1945 22.8632H81.5197L78.7758 16.8156Z" fill="#5E7999"/>
<path d="M85.9306 12.5054H87.5447V21.4467H92.3279V22.8651H85.9287V12.5054H85.9306Z" fill="#5E7999"/>
<path d="M96.3818 19.5878L92.4512 12.5054H94.2342L96.5812 16.77C96.9021 17.3491 97.2059 18.2625 97.2059 18.2625C97.2059 18.2625 97.5269 17.3491 97.8307 16.77L100.102 12.5054H101.763L97.9997 19.4967V22.8651H96.3837V19.5878H96.3818Z" fill="#5E7999"/>
<path d="M103.036 20.8524L104.361 20.1214C104.849 20.9284 105.474 21.5702 106.738 21.5702C107.79 21.5702 108.537 21.0062 108.537 20.1518C108.537 19.2537 107.927 18.8568 106.799 18.3537L106.114 18.0498C104.604 17.3796 103.691 16.6182 103.691 15.0175C103.691 13.4776 104.879 12.382 106.6 12.382C107.971 12.382 108.899 12.9004 109.526 14.0131L108.261 14.7897C107.864 14.1042 107.407 13.7833 106.6 13.7833C105.778 13.7833 105.259 14.2865 105.259 14.9871C105.259 15.7637 105.702 16.115 106.754 16.5707L107.424 16.8764C109.192 17.653 110.137 18.4771 110.137 20.1366C110.137 21.9499 108.721 23 106.771 23C104.803 23 103.615 22.0259 103.036 20.8524Z" fill="#5E7999"/>
<path d="M115.029 13.9219H111.951V12.5054H119.706V13.9219H116.628V22.8651H115.029V13.9219Z" fill="#5E7999"/>
<path d="M11.4332 22.865H0L5.71772 17.1499L11.4332 22.865Z" fill="#F6B8D3"/>
<path d="M17.1509 17.1499L11.4332 22.8651L5.71777 17.1499L11.4332 11.4325L17.1509 17.1499Z" fill="#B14E8E"/>
<path d="M22.8663 22.865H11.4331L17.1508 17.1499L22.8663 22.865Z" fill="#F6B8D3"/>
<path d="M11.4332 11.4326L5.71772 17.15L0 11.4326L5.71772 5.71739L11.4332 11.4326Z" fill="#3F3F8B"/>
<path d="M5.71772 17.1499L0 22.8651V11.4325L5.71772 17.1499Z" fill="#5793CE"/>
<path d="M5.71772 5.71742L0 11.4326V0L5.71772 5.71742Z" fill="#5793CE"/>
<path d="M22.8663 11.4326L17.1508 17.15L11.4331 11.4326L17.1508 5.71739L22.8663 11.4326Z" fill="#B74E13"/>
<path d="M22.8663 0V11.4326L17.1509 5.71742L22.8663 0Z" fill="#FCB61F"/>
<path d="M22.8663 11.4325V22.8651L17.1509 17.1499L22.8663 11.4325Z" fill="#FCB61F"/>
</svg>
