<svg width="32" height="32" viewBox="0 0 32 32" fill="none" xmlns="http://www.w3.org/2000/svg">
    <rect width="32" height="32" fill="white"/>
    <g clip-path="url(#clip0_591_1018)">
        <path d="M21.7232 26.0006H9.19332C8.53699 26.0006 8 25.4645 8 24.8094V12.3027C8 11.6476 8.53699 11.1116 9.19332 11.1116H21.7232C22.3795 11.1116 22.9165 11.6476 22.9165 12.3027V24.8094C22.9165 25.4645 22.3795 26.0006 21.7232 26.0006Z" fill="#40A7C7"/>
        <circle cx="10.2955" cy="23.7966" r="8.7413" fill="#67B9D2" stroke="#0E101A" stroke-width="0.5"/>
        <circle cx="10.2956" cy="23.7964" r="4.91522" fill="#40A7C7" stroke="#0E101A" stroke-width="0.5"/>
    </g>
    <rect x="8.25" y="11.3614" width="14.4165" height="14.389" rx="1.28043" stroke="#0E101A" stroke-width="0.5"/>
    <path d="M25.8902 21.8741H13.3603C12.704 21.8741 12.167 21.3381 12.167 20.6829V8.17622C12.167 7.52111 12.704 6.98511 13.3603 6.98511H25.8902C26.5465 6.98511 27.0835 7.52111 27.0835 8.17622V20.6829C27.0835 21.3381 26.5465 21.8741 25.8902 21.8741Z" fill="#F0F2FC"/>
    <path d="M25.8902 21.8741H13.3603C12.704 21.8741 12.167 21.3381 12.167 20.6829V8.17622C12.167 7.52111 12.704 6.98511 13.3603 6.98511H25.8902C26.5465 6.98511 27.0835 7.52111 27.0835 8.17622V20.6829C27.0835 21.3381 26.5465 21.8741 25.8902 21.8741Z" stroke="#0E101A" stroke-width="0.5" stroke-miterlimit="10" stroke-linecap="round" stroke-dasharray="0.96 0.96"/>
    <path d="M24.6476 11.8981H14.8027C14.6386 11.8981 14.5044 11.7641 14.5044 11.6003C14.5044 11.4365 14.6386 11.3025 14.8027 11.3025H24.6476C24.8117 11.3025 24.946 11.4365 24.946 11.6003C24.946 11.7641 24.8117 11.8981 24.6476 11.8981Z" fill="#9FA6BF"/>
    <path d="M24.6476 14.7677H14.8027C14.6386 14.7677 14.5044 14.6337 14.5044 14.4699C14.5044 14.3061 14.6386 14.1721 14.8027 14.1721H24.6476C24.8117 14.1721 24.946 14.3061 24.946 14.4699C24.946 14.6337 24.8117 14.7677 24.6476 14.7677Z" fill="#9FA6BF"/>
    <path d="M19.4268 17.6373H14.8027C14.6386 17.6373 14.5044 17.5033 14.5044 17.3395C14.5044 17.1758 14.6386 17.0418 14.8027 17.0418H19.4268C19.5909 17.0418 19.7252 17.1758 19.7252 17.3395C19.7252 17.5033 19.5909 17.6373 19.4268 17.6373Z" fill="#9FA6BF"/>
    <defs>
        <clipPath id="clip0_591_1018">
            <rect x="8" y="11.1114" width="14.9165" height="14.889" rx="1.53043" fill="white"/>
        </clipPath>
    </defs>
</svg>
